<svg xmlns="http://www.w3.org/2000/svg" viewBox="0 0 128 128" role="img" aria-label="Hyle Labs">
  <rect width="128" height="128" rx="28" fill="#f7f8f3"/>
  <rect x="28" y="20" width="16" height="38" rx="3" fill="#111418"/>
  <rect x="84" y="20" width="16" height="38" rx="3" fill="#111418"/>
  <rect x="28" y="70" width="16" height="38" rx="3" fill="#111418"/>
  <rect x="84" y="70" width="16" height="38" rx="3" fill="#111418"/>
  <polygon points="44,56 49,56 38,72 44,72" fill="#111418"/>
  <polygon points="84,56 79,56 90,72 84,72" fill="#111418"/>
  <polygon points="44,72 49,72 38,56 44,56" fill="#111418"/>
  <polygon points="84,72 79,72 90,56 84,56" fill="#111418"/>
  <rect x="56.5" y="56.5" width="15" height="15" rx="3" fill="#0f766e"/>
  <circle cx="64" cy="64" r="3.3" fill="#fff"/>
</svg>
